# xmcd CD database file
#
# Track frame offsets:
#	150
#	18710
#	31337
#	46770
#	66540
#	87535
#	108465
#	123905
#	142295
#	164302
#	191877
#	208084
#	220512
#	242670
#	255432
#	271795
#	298475
#	314442
#
# Disc length: 4371 seconds
#
# Revision: 3
# Processed by: cddbd v1.5.2PL0 Copyright (c) Steve Scherf et al.
# Submitted via: CDex 1.70beta2
#
DISCID=1b111112,24111112
DTITLE=Boi-Bumbá Caprichoso - Caprichoso 2000 - A Terra é Azul
DYEAR=2000
DGENRE=Toada
TTITLE0=A Terra é Azul
TTITLE1=Sublime Paixão
TTITLE2=Negro da América
TTITLE3=O Grito das Águas
TTITLE4=Misterioso Kuraca
TTITLE5=Yukatã - A Flor da Manhã
TTITLE6=Eu Quero Te Amar
TTITLE7=Galope da Vaqueirada
TTITLE8=Cobra Grande
TTITLE9=Mura, O Príncipe das Águas
TTITLE10=Brasis Ameríndios
TTITLE11=Prisma do Desejo
TTITLE12=Velas Brancas
TTITLE13=Dessana
TTITLE14=Pariuaté-Rã
TTITLE15=Luz da Comunhão
TTITLE16=Lua Branca
TTITLE17=Cantos de Guerra (Instrumental)
EXTD=amazonas folklore(brasilien) YEAR: 2000
EXTT0=
EXTT1=
EXTT2=
EXTT3=
EXTT4=
EXTT5=
EXTT6=
EXTT7=
EXTT8=
EXTT9=
EXTT10=
EXTT11=
EXTT12=
EXTT13=
EXTT14=
EXTT15=
EXTT16=
EXTT17=
PLAYORDER=
